<svg width="64" height="64" viewBox="0 0 64 64" fill="none" xmlns="http://www.w3.org/2000/svg">
<circle cx="32" cy="32" r="32" fill="#6CBD7D"/>
<mask id="mask0" mask-type="alpha" maskUnits="userSpaceOnUse" x="0" y="0" width="64" height="64">
<circle cx="32" cy="32" r="32" fill="#264BA4"/>
</mask>
<g mask="url(#mask0)">
<path d="M32.3805 41.2204C34.1026 41.2197 40.1776 41.3517 46.0246 43.0878C54.2296 45.5235 58.5692 50.0613 58.5764 56.2087L32.3805 83.7966L5.42383 56.2087C5.42881 50.2017 9.59211 45.7199 17.4645 43.2476C23.4409 41.3702 29.78 41.2217 31.5806 41.2207C31.781 41.2207 31.9207 41.222 31.9947 41.2237C32.0471 41.222 32.1853 41.2207 32.3805 41.2204Z" fill="#264BA4"/>
</g>
<path d="M39.8377 16.3734C36.459 14.8296 32.9484 14.7122 31.9533 14.7128C31.8405 14.7131 31.7606 14.7143 31.7303 14.7158C31.6876 14.7143 31.6068 14.7131 31.4911 14.7131C30.4505 14.714 26.7874 14.846 23.3338 16.5155C18.7786 18.7169 16.3724 22.7099 16.376 28.0621C16.3801 33.8462 18.3291 37.8478 22.168 39.9592C25.379 41.7249 29.1175 41.7222 31.3503 41.7207L32.1314 41.7201C35.2115 41.7181 40.9439 41.7139 44.403 37.3458C46.1893 35.0911 47.0936 31.9607 47.0909 28.0407C47.0868 22.5743 44.5791 18.5393 39.8377 16.3734Z" fill="#FFC68D"/>
<path d="M35.7969 30.9065C35.7969 30.9065 35.8782 30.8731 36.022 30.8236C36.1661 30.7785 36.3709 30.7028 36.618 30.6308C37.1121 30.4831 37.7735 30.3164 38.4377 30.1811C39.1018 30.0471 39.7685 29.9432 40.2708 29.8909C40.5214 29.8615 40.732 29.8539 40.8785 29.8406C41.0256 29.8305 41.1097 29.8305 41.1097 29.8305L41.2206 31.1509C41.2206 31.1509 41.1384 31.1811 40.9941 31.2242C40.8498 31.264 40.6444 31.3308 40.3962 31.3912C39.9002 31.5188 39.2366 31.6561 38.57 31.7624C37.9033 31.867 37.2342 31.9407 36.7303 31.9729C36.4786 31.991 36.2674 31.991 36.1203 31.9983C35.9727 32.0019 35.8881 31.9987 35.8881 31.9987L35.7969 30.9065Z" fill="#2E343A"/>
<path d="M29.1803 31.9984C29.1803 31.9984 29.0787 32.0017 28.9019 31.9988C28.7254 31.992 28.472 31.9928 28.1699 31.9742C27.5652 31.9434 26.7619 31.8706 25.9619 31.7666C25.1615 31.6614 24.3648 31.5246 23.7696 31.398C23.4715 31.3369 23.225 31.2701 23.0518 31.2309C22.8785 31.1876 22.7803 31.1576 22.7803 31.1576L22.9111 29.8305C22.9111 29.8305 23.0123 29.8301 23.1888 29.8398C23.365 29.8528 23.6174 29.86 23.9185 29.8892C24.5209 29.941 25.3216 30.0441 26.1187 30.1773C26.9157 30.3116 27.7095 30.4775 28.3027 30.6252C28.5995 30.6972 28.8454 30.7729 29.0182 30.8178C29.1908 30.8671 29.2887 30.9007 29.2887 30.9007L29.1803 31.9984Z" fill="#2E343A"/>
<path d="M16.8135 21.6949L19.7646 22.1517C27.8732 23.4066 36.1266 23.4066 44.2352 22.1517L47.1864 21.6949V26.3955L44.2352 26.8522C36.1266 28.1071 27.8732 28.1071 19.7646 26.8522L16.8135 26.3955V21.6949Z" fill="#2D309B"/>
<path d="M24.9492 23.3612C24.9492 22.5175 25.7456 21.9008 26.5625 22.1119C29.9511 22.9877 33.5067 22.9877 36.8953 22.1119C37.7121 21.9008 38.5085 22.5175 38.5085 23.3612V26.5098C38.5085 27.4402 37.8386 28.2354 36.9218 28.3934C33.4852 28.9855 29.9726 28.9855 26.536 28.3934C25.6191 28.2354 24.9492 27.4402 24.9492 26.5098V23.3612Z" fill="#A0A0A0"/>
<path d="M37.1531 15.1865L41.4921 22.7797C41.3098 22.8183 41.129 22.8559 40.9497 22.8925C41.1666 25.3691 39.7746 31.6232 39.0514 34.4408C39.9192 29.6679 39.2322 25.0257 38.7802 23.3012C31.6048 24.537 27.0484 24.1275 24.6785 23.4604C24.1361 25.2222 23.4311 30.1018 24.9497 35.5255C24.2809 34.3423 23.2316 32.0466 22.4514 29.2882C21.3206 35.3628 22.1994 39.9549 22.7802 41.4916H22.509C19.9056 36.2848 20.7011 26.6667 21.4243 22.5086C21.4243 19.557 21.3707 18.0243 21.3074 17.2985L21.1531 16.8136C21.1769 16.7182 21.2071 16.692 21.2386 16.8049L37.1531 15.1865Z" fill="#0F0C15"/>
<path d="M24.9492 22.8838C24.9492 22.0011 25.7743 21.3506 26.6326 21.5566C29.9826 22.3606 33.4752 22.3606 36.8252 21.5566C37.6834 21.3506 38.5085 22.0011 38.5085 22.8838V25.4031C38.5085 26.3916 37.7905 27.2336 36.8145 27.3897C33.4455 27.9288 30.0122 27.9288 26.6432 27.3897C25.6672 27.2336 24.9492 26.3916 24.9492 25.4031V22.8838Z" fill="#DFDFDF"/>
<path d="M44.7044 11.5004C44.6361 8.44575 43.4497 5.44157 42.1709 3.81122C41.8653 3.4216 41.4535 3.75926 41.5925 4.23452C42.8556 8.5548 40.3814 14.2278 38.5088 16.5397L47.9711 26.2747C49.5618 27.6131 50.8993 27.8032 51.8464 27.5833C52.5474 27.4207 52.3737 26.6012 51.79 26.1803C50.9266 25.5577 50.6746 24.8234 50.6746 24.4423C50.8681 24.4704 51.0535 24.4773 51.2297 24.4675C52.0869 24.4197 51.7216 23.3258 51.3367 22.5584C50.9 21.6878 50.8521 20.3213 50.6746 18.8303C50.4967 17.3354 50.2317 15.5842 49.9584 14.2997C49.8624 13.8487 49.2952 13.8154 49.1181 14.2411L47.9711 16.9978C48.9393 14.4233 47.9567 10.6068 46.821 8.44118C46.6064 8.03196 46.0824 8.19371 46.072 8.65567L45.9435 14.3637L44.7044 11.5004Z" fill="#0F0C15"/>
<path d="M37.2857 18.4138C34.6019 19.0652 32.5775 20.9577 31.7292 22.2373C29.6932 19.6315 26.7588 19.1893 25.7177 18.8791C22.2727 23.354 23.3278 29.3883 24.4289 33.5408C24.6961 34.5488 24.1447 34.7652 23.7386 33.8047C22.889 31.7951 22.0399 29.6297 21.7845 29.1161C20.8719 32.9093 21.4092 36.7762 22.2131 39.6196C22.3716 40.1803 21.689 40.558 21.4166 40.0429C19.6242 36.6529 18.9801 32.7686 18.8925 30.8611C18.8359 31.9545 18.8607 33.0371 18.9521 34.0984C19.1563 36.469 17.3768 37.4505 16.5421 35.2224C13.795 27.8891 12.6009 19.3344 16.8139 13.2882C18.8925 10.3051 27.6996 6.12158 34.4091 8.06041C36.4292 8.48808 40.5992 8.03133 41.0691 3.89229C41.1189 3.45366 41.6326 3.22869 41.8876 3.58904C43.9148 6.45399 43.2467 11.3299 42.6224 12.4809C44.1165 12.4809 45.2454 10.6455 45.7638 8.90668C45.9111 8.41271 46.6806 8.28823 46.8341 8.78032C47.8544 12.0516 46.9099 15.2534 46.3088 16.4362C47.3779 16.4362 48.193 15.5408 48.791 14.4006C49.0347 13.9358 49.7757 14.0109 49.8171 14.5342C50.3418 21.16 48.5046 29.8968 47.0041 35.0175C46.705 36.038 46.0998 35.8556 46.2903 34.8094C46.8304 31.8445 47.2374 28.6166 46.3088 26.3242C46.3619 26.965 46.2914 27.7924 46.1495 28.6728C45.9711 29.7795 45.3252 29.6114 45.3346 28.4905C45.3439 27.3678 45.1367 26.4021 44.5736 25.1609C44.3347 27.4831 43.731 30.6793 43.0435 33.666C42.5679 35.7322 41.862 35.5189 41.8871 33.3988C41.9101 31.4509 41.7096 29.2443 41.1032 26.7895C40.8347 28.0046 40.3548 30.2592 39.8958 32.3341C39.6628 33.3875 39.0982 33.2897 39.24 32.2202C39.9222 27.0736 40.7332 22.1931 37.2857 18.4138Z" fill="#2A354D"/>
<path d="M20.198 40.1987C19.5496 38.2847 19.0544 35.7647 18.9838 31.1865L17.0855 28.7458C16.6491 33.5462 17.5294 37.3955 19.2196 40.719C19.7239 41.7105 20.5549 41.2522 20.198 40.1987Z" fill="#0F0C15"/>
<path d="M45.3245 28.9817C45.3851 27.6838 45.2552 26.3568 44.7465 25.2204L45.2889 24.678C45.8865 25.9727 46.0497 27.6218 45.9202 29.1845C45.831 30.2618 45.2741 30.0616 45.3245 28.9817Z" fill="#0F0C15"/>
<path d="M42.577 26.5763H41.2211C41.6898 30.1387 41.8345 32.5669 41.8007 34.3873C41.779 35.5539 42.3023 35.6799 42.4417 34.5215C42.8435 31.1821 42.7852 28.0854 42.577 26.5763Z" fill="#0F0C15"/>
</svg>
